<svg width="195" height="53" viewBox="0 0 195 53" fill="none" xmlns="http://www.w3.org/2000/svg">
<g clip-path="url(#clip0_76_252)">
<path d="M0 4.41925C0 2.00537 2.59159 0 5.83262 0C9.07365 0 11.6652 2.00537 11.6652 4.41925C11.6652 6.83312 9.0118 8.78279 5.83262 8.78279C2.65344 8.78279 0 6.83931 0 4.41925ZM1.002 41.0606V13.8395C1.002 13.6167 0.940147 13.3939 0.828813 13.202C0.408222 12.4902 0.785517 11.5742 1.5834 11.3576L8.67162 9.4203C8.77676 9.38935 8.8881 9.37697 9.00562 9.37697H9.29013C9.98287 9.37697 10.5457 9.94021 10.5457 10.6334V41.0668C10.5457 41.76 9.98287 42.3232 9.29013 42.3232H2.25759C1.56485 42.3232 1.002 41.76 1.002 41.0668V41.0606Z" fill="white"/>
<path d="M50.57 50.6171L42.6901 52.7339C42.22 52.8576 41.7561 52.5172 41.7437 52.0345C41.2365 37.2851 28.8415 38.6591 18.8462 44.1925C18.4875 44.3905 18.0298 44.2729 17.8257 43.9139L17.7576 43.7963C17.5473 43.4374 17.671 42.9731 18.0298 42.7627L28.7178 36.5361C29.3239 36.1833 29.1569 35.2611 28.4642 35.1435C9.53753 31.8631 11.4673 9.37697 33.3999 9.37697H48.6649C49.0794 9.37697 49.4195 9.71739 49.4195 10.1321V10.2744C49.4195 10.6891 49.0794 11.0295 48.6649 11.0295H45.6775C44.9229 11.0295 44.6384 12.0137 45.2755 12.4222C55.9449 19.2491 52.1101 35.2178 33.8329 35.5458C33.703 35.5458 33.5793 35.583 33.468 35.6449C32.7567 36.0596 33.134 37.1551 33.9442 37.0437C42.4736 35.8801 50.0009 38.6467 51.1266 49.8248C51.1638 50.19 50.9225 50.5304 50.57 50.6233V50.6171ZM37.1667 33.7757C48.065 30.8295 40.4634 8.37429 29.5713 11.3205C18.7349 14.2109 26.3303 36.6661 37.1667 33.7757Z" fill="white"/>
<path d="M88.9923 19.5648V42.3171H79.5104V19.8618C79.5104 13.4372 72.7377 10.7263 68.6121 13.1401C65.5505 14.8484 65.5505 17.677 65.5505 20.685V42.3171H56.0068V13.4991L55.0048 11.7908L63.8372 9.37697H65.5443V12.973C67.3689 11.6732 69.4286 10.6768 71.7295 10.0826C79.3249 8.02149 88.9861 10.4973 88.9861 19.5709L88.9923 19.5648Z" fill="white"/>
<path d="M115.7 9.37078H118.192C119.034 9.37078 119.646 10.1692 119.423 10.98L111.08 42.1995C109.131 49.2802 102.167 53.359 95.1342 52.9752C94.46 52.9381 93.9404 52.3687 93.9404 51.694V47.5471C93.9404 46.6435 94.8497 46.0307 95.6908 46.3588C102.315 48.9893 105.655 47.8752 107.826 44.242C108.333 43.394 107.715 42.3109 106.725 42.3109H102.167C101.591 42.3109 101.084 41.9209 100.936 41.3639L92.79 10.9738C92.5735 10.163 93.1858 9.36459 94.0208 9.36459H101.27C101.851 9.36459 102.352 9.75453 102.501 10.3116L108.42 32.513C108.772 33.8437 110.696 33.7509 110.913 32.3892L114.444 10.4416C114.543 9.82261 115.075 9.36459 115.706 9.36459L115.7 9.37078Z" fill="white"/>
<path d="M156.454 0H156.85C157.462 0 157.957 0.495154 157.957 1.10791V41.2092C157.957 41.8219 157.462 42.3171 156.85 42.3171H156.695C156.479 42.3171 156.268 42.2552 156.089 42.1376L151.382 39.0614C151.011 38.82 150.541 38.8386 150.176 39.0862C147.151 41.1287 143.434 42.3232 139.401 42.3232C129.388 42.3232 121.322 34.9578 121.322 25.878C121.322 16.7981 129.388 9.37697 139.401 9.37697C142.086 9.37697 144.659 9.92164 146.947 10.8934C147.671 11.1967 148.469 10.6582 148.469 9.87212V4.41925C148.469 4.22737 148.419 4.04169 148.327 3.87458L148.172 3.60843C147.813 2.97711 148.147 2.17868 148.846 1.99299L156.169 0.0371365C156.262 0.0123788 156.361 0 156.454 0ZM135.579 11.5495C130.983 12.7254 128.986 20.1528 131.101 28.0504C133.222 35.9482 138.641 41.3701 143.236 40.1322C154.073 37.2417 146.595 8.60329 135.579 11.5495Z" fill="white"/>
<path d="M195 16.9281V21.4835C195 21.9229 194.641 22.2819 194.202 22.2819H171.199C170.742 22.2819 170.383 22.6718 170.408 23.1299C170.76 30.0434 174.768 37.5512 183.99 37.6069C187.844 37.6626 191.549 36.2576 193.342 33.9675C193.627 33.6024 194.171 33.5714 194.505 33.8933C194.79 34.1656 194.839 34.6112 194.604 34.9331C191.314 39.3957 185.908 42.3294 179.63 42.3294C155.835 42.3294 155.835 9.38316 179.63 9.38316C185.419 9.38316 190.98 12.1127 194.802 16.402C194.932 16.5505 195.006 16.7362 195.006 16.9343L195 16.9281ZM185.654 20.6293C186.236 20.6293 186.625 20.0228 186.378 19.5029C183.774 13.9262 179.5 10.5591 175.795 11.5556C172.937 12.2674 171.107 15.6469 170.587 19.7319C170.525 20.2085 170.896 20.6355 171.379 20.6355H185.654V20.6293Z" fill="white"/>
</g>
<defs>
<clipPath id="clip0_76_252">
<rect width="195" height="53" fill="white"/>
</clipPath>
</defs>
</svg>
